<?xml version="1.0" standalone="no"?>
<!DOCTYPE svg PUBLIC "-//W3C//DTD SVG 20010904//EN"
 "http://www.w3.org/TR/2001/REC-SVG-20010904/DTD/svg10.dtd">
<svg version="1.0" xmlns="http://www.w3.org/2000/svg"
 width="300.000000pt" height="300.000000pt" viewBox="0 0 300.000000 300.000000"
 preserveAspectRatio="xMidYMid meet">
<metadata>
Created by potrace 1.10, written by Peter Selinger 2001-2011
</metadata>
<g transform="translate(0.000000,300.000000) scale(0.050000,-0.050000)"
fill="#2ea1c6" stroke="none">
<path d="M3119 5485 c-1 -8 -3 -202 -5 -430 l-4 -415 75 0 75 0 0 179 c0 195
23 272 86 288 97 26 114 -12 114 -248 l0 -219 82 0 81 0 -6 248 c-6 229 -11
253 -54 299 -91 96 -201 91 -264 -14 l-39 -63 0 195 0 195 -70 0 c-38 0 -71
-7 -71 -15z"/>
<path d="M346 5365 c6 -41 27 -221 46 -400 l35 -325 97 0 c114 0 109 -10 127
249 16 237 39 216 59 -54 l14 -195 98 0 c118 0 105 -36 148 400 20 193 39 361
45 375 6 17 -15 25 -71 25 l-80 0 -13 -235 c-25 -462 -54 -547 -79 -231 -21
255 -25 266 -100 266 l-65 0 -23 -223 c-22 -209 -32 -256 -52 -235 -5 4 -15
154 -23 333 l-15 325 -79 0 -80 0 11 -75z"/>
<path d="M2520 5330 c0 -90 0 -90 -70 -90 -67 0 -70 -3 -70 -70 0 -68 3 -70
75 -70 l75 0 -7 -107 c-16 -257 66 -353 303 -353 l136 0 -6 74 -6 74 -102 -5
c-141 -8 -168 23 -168 188 l0 129 130 0 130 0 0 70 0 70 -130 0 -130 0 0 90 0
90 -80 0 -80 0 0 -90z"/>
<path d="M1241 5235 c-106 -38 -161 -135 -161 -283 0 -227 96 -312 350 -312
l152 0 -6 74 -6 74 -122 -6 c-107 -4 -130 2 -180 46 l-58 51 208 0 208 1 -13
103 c-24 209 -186 318 -372 252z m175 -146 c90 -63 58 -109 -76 -109 -132 0
-150 21 -79 96 48 52 94 56 155 13z"/>
<path d="M3932 5231 c-43 -16 -86 -40 -96 -55 -122 -175 -91 -416 65 -499 93
-50 390 -54 371 -5 -7 17 -12 51 -12 75 0 40 -8 43 -121 36 -86 -5 -134 2
-170 26 -86 56 -57 71 141 71 l190 0 0 81 c0 221 -167 344 -368 270z m188
-151 c75 -75 53 -100 -90 -100 -143 0 -157 15 -81 91 60 59 117 63 171 9z"/>
<path d="M4784 5239 c-25 -10 -57 -46 -72 -81 -27 -65 -52 -44 -52 44 0 33
-15 38 -121 38 l-122 0 7 -65 c5 -54 14 -65 56 -65 49 0 50 -4 56 -165 l6
-165 -71 0 c-68 0 -71 -3 -71 -70 l0 -70 210 0 210 0 0 70 c0 67 -3 70 -73 70
l-72 0 10 134 c15 185 150 282 187 134 22 -87 176 -70 158 17 -32 152 -130
221 -246 174z"/>
<path d="M1800 5170 l0 -70 129 0 c90 0 138 -9 160 -31 51 -51 38 -59 -98 -59
-188 0 -298 -100 -263 -240 40 -157 300 -187 363 -42 l27 62 1 -75 1 -75 110
0 110 0 0 70 c0 57 -8 70 -40 70 -36 0 -40 13 -40 141 0 241 -80 319 -328 319
l-132 0 0 -70z m315 -303 c15 -46 -80 -109 -155 -103 -88 8 -112 84 -36 115
60 25 181 17 191 -12z"/>
<path d="M420 3702 l0 -402 191 0 c289 0 369 47 369 220 0 108 -68 180 -169
180 -39 0 -71 9 -71 20 0 11 13 20 29 20 158 0 215 210 84 309 -45 33 -92 42
-244 48 l-189 7 0 -402z m336 234 c64 -64 -12 -156 -130 -156 -65 0 -66 2 -66
90 l0 90 86 0 c47 0 97 -11 110 -24z m13 -299 c134 -61 66 -197 -99 -197
l-110 0 0 110 0 110 79 0 c44 0 102 -10 130 -23z"/>
<path d="M1040 3886 c0 -108 195 -586 239 -587 l51 0 -65 -60 c-36 -32 -87
-59 -114 -59 -86 0 -111 -21 -111 -90 0 -66 0 -66 85 -55 243 30 282 82 444
602 87 278 87 263 -6 263 l-78 0 -56 -215 c-30 -118 -62 -228 -71 -245 -18
-35 -9 -58 -100 245 l-64 215 -77 0 c-42 0 -77 -6 -77 -14z"/>
<path d="M1720 2730 c0 -70 0 -70 90 -70 l90 0 0 -285 c0 -399 44 -460 303
-425 100 14 101 15 89 75 -7 33 -12 68 -12 77 0 10 -39 12 -86 5 -150 -20
-159 3 -151 376 l7 317 -165 0 -165 0 0 -70z"/>
<path d="M488 2692 c-133 -133 -78 -280 149 -399 278 -146 127 -282 -181 -163
-45 18 -77 -125 -34 -151 63 -39 278 -45 369 -10 237 91 200 301 -81 456 -66
37 -123 82 -127 102 -16 87 111 124 209 60 57 -37 171 40 138 93 -63 102 -345
109 -442 12z"/>
<path d="M1140 2522 c0 -21 -5 -53 -12 -70 -10 -27 6 -32 99 -32 130 0 213
-27 213 -70 0 -24 -27 -30 -132 -30 -279 0 -365 -321 -99 -371 93 -18 188 21
203 84 17 67 48 59 48 -13 0 -59 1 -60 110 -60 122 0 179 107 65 124 -42 6
-46 18 -55 183 -9 154 -16 181 -57 214 -102 83 -383 112 -383 41z m300 -345
c0 -52 -67 -97 -144 -97 -85 0 -118 39 -76 90 31 37 220 42 220 7z"/>
<path d="M420 1415 c0 -3 -1 -185 -2 -405 l-1 -400 66 0 67 0 -3 315 c-3 283
14 395 42 270 6 -25 33 -148 61 -275 27 -126 54 -248 59 -270 8 -34 26 -40
120 -41 l111 -1 0 406 0 406 -70 0 -70 0 0 -324 c0 -388 -14 -385 -100 19
l-65 305 -108 0 c-59 0 -107 -2 -107 -5z"/>
<path d="M1083 955 c7 -255 8 -259 63 -307 86 -74 254 -46 254 43 0 16 9 29
20 29 11 0 20 -27 20 -60 0 -59 1 -60 110 -60 l110 0 0 70 c0 57 -8 70 -40 70
-38 0 -40 13 -40 241 l0 241 -75 -6 -75 -6 7 -153 c9 -189 -21 -292 -89 -309
-91 -23 -108 17 -108 252 l0 215 -82 0 -81 0 6 -260z"/>
<path d="M1770 1196 c-6 -15 -9 -153 -6 -307 l6 -279 75 -6 75 -6 0 201 c0
216 28 281 119 281 63 0 81 -63 81 -280 l0 -202 75 6 75 6 6 170 c12 332 -36
440 -195 440 -69 0 -87 -9 -118 -60 -38 -62 -63 -61 -63 3 0 21 -13 37 -28 37
-16 0 -43 5 -60 12 -18 7 -36 0 -42 -16z"/>
<path d="M2544 1179 c-80 -48 -124 -145 -124 -270 0 -206 121 -309 363 -309
153 0 151 -1 141 89 l-8 71 -105 -12 c-116 -14 -231 28 -231 85 0 27 26 31
190 23 l190 -8 -1 71 c-4 244 -220 379 -415 260z m230 -124 c63 -81 50 -95
-84 -95 -114 0 -127 4 -117 35 19 52 68 85 128 85 30 0 63 -11 73 -25z"/>
<path d="M3120 1146 l0 -64 149 -6 150 -6 -149 -160 c-124 -134 -148 -171
-149 -230 l-1 -70 245 2 245 3 6 61 6 62 -160 6 -161 6 149 160 c124 134 148
171 149 230 l1 70 -240 0 -240 0 0 -64z"/>
</g>
</svg>
